<svg width="32" height="40" viewBox="0 0 32 40" fill="none" xmlns="http://www.w3.org/2000/svg">
<path d="M31.0284 27.2947C30.8927 27.1218 30.7594 26.9489 30.6287 26.7821C28.8303 24.4819 27.7422 23.0937 27.7422 16.5821C27.7422 13.2109 26.9795 10.4447 25.4763 8.37016C24.3678 6.83756 22.8694 5.67493 20.8944 4.8157C20.869 4.80075 20.8463 4.78114 20.8274 4.75779C20.117 2.24235 18.1731 0.557617 15.9807 0.557617C13.7883 0.557617 11.8452 2.24235 11.1349 4.75519C11.1159 4.77769 11.0935 4.79668 11.0687 4.81138C6.45987 6.81768 4.22005 10.6669 4.22005 16.5795C4.22005 23.0937 3.13366 24.4819 1.33363 26.7795C1.20284 26.9463 1.06959 27.1158 0.933898 27.2921C0.583375 27.7391 0.36129 28.2829 0.293926 28.8593C0.226562 29.4356 0.316738 30.0202 0.553783 30.544C1.05815 31.6677 2.1331 32.3653 3.36009 32.3653H28.6104C29.8316 32.3653 30.8992 31.6686 31.4052 30.5501C31.6433 30.0261 31.7343 29.441 31.6675 28.864C31.6007 28.2871 31.3789 27.7424 31.0284 27.2947ZM15.9807 39.2832C17.162 39.2822 18.3209 38.9431 19.3347 38.302C20.3485 37.6608 21.1792 36.7415 21.7389 35.6414C21.7652 35.5887 21.7782 35.5297 21.7767 35.4701C21.7751 35.4105 21.7589 35.3523 21.7298 35.3012C21.7007 35.2502 21.6596 35.2079 21.6105 35.1786C21.5613 35.1493 21.5059 35.134 21.4495 35.134H10.5136C10.4571 35.1338 10.4016 35.1491 10.3524 35.1783C10.3031 35.2076 10.2619 35.2498 10.2327 35.3009C10.2035 35.352 10.1872 35.4102 10.1856 35.4699C10.184 35.5295 10.197 35.5887 10.2234 35.6414C10.783 36.7413 11.6136 37.6606 12.6272 38.3017C13.6408 38.9429 14.7996 39.282 15.9807 39.2832Z" fill="white"/>
</svg>
