<svg width="32" height="35" viewBox="0 0 32 35" fill="none" xmlns="http://www.w3.org/2000/svg">
<path d="M12.3201 16.3311H2.78285C2.1133 16.3311 1.47117 16.0501 0.997725 15.5499C0.52428 15.0497 0.258301 14.3712 0.258301 13.6638V3.58725C0.258301 2.87983 0.52428 2.20138 0.997725 1.70116C1.47117 1.20094 2.1133 0.919922 2.78285 0.919922H12.3201C12.9896 0.919922 13.6317 1.20094 14.1052 1.70116C14.5786 2.20138 14.8446 2.87983 14.8446 3.58725V13.6638C14.8446 14.3712 14.5786 15.0497 14.1052 15.5499C13.6317 16.0501 12.9896 16.3311 12.3201 16.3311ZM29.1504 16.3311H19.6132C18.9437 16.3311 18.3015 16.0501 17.8281 15.5499C17.3546 15.0497 17.0887 14.3712 17.0887 13.6638V3.58725C17.0887 2.87983 17.3546 2.20138 17.8281 1.70116C18.3015 1.20094 18.9437 0.919922 19.6132 0.919922H29.1504C29.82 0.919922 30.4621 1.20094 30.9355 1.70116C31.409 2.20138 31.675 2.87983 31.675 3.58725V13.6638C31.675 14.3712 31.409 15.0497 30.9355 15.5499C30.4621 16.0501 29.82 16.3311 29.1504 16.3311ZM12.3201 34.1133H2.78285C2.1133 34.1133 1.47117 33.8323 0.997725 33.332C0.52428 32.8318 0.258301 32.1534 0.258301 31.446V21.3694C0.258301 20.662 0.52428 19.9835 0.997725 19.4833C1.47117 18.9831 2.1133 18.7021 2.78285 18.7021H12.3201C12.9896 18.7021 13.6317 18.9831 14.1052 19.4833C14.5786 19.9835 14.8446 20.662 14.8446 21.3694V31.446C14.8446 32.1534 14.5786 32.8318 14.1052 33.332C13.6317 33.8323 12.9896 34.1133 12.3201 34.1133ZM29.1504 34.1133H19.6132C18.9437 34.1133 18.3015 33.8323 17.8281 33.332C17.3546 32.8318 17.0887 32.1534 17.0887 31.446V21.3694C17.0887 20.662 17.3546 19.9835 17.8281 19.4833C18.3015 18.9831 18.9437 18.7021 19.6132 18.7021H29.1504C29.82 18.7021 30.4621 18.9831 30.9355 19.4833C31.409 19.9835 31.675 20.662 31.675 21.3694V31.446C31.675 32.1534 31.409 32.8318 30.9355 33.332C30.4621 33.8323 29.82 34.1133 29.1504 34.1133Z" fill="white"/>
</svg>
