<svg width="35" height="34" viewBox="0 0 35 34" fill="none" xmlns="http://www.w3.org/2000/svg">
<path d="M26.25 3.26611H7.92362C7.57645 3.26611 7.24349 3.1204 6.998 2.86103C6.75251 2.60165 6.61459 2.24987 6.6146 1.88306C6.61459 1.51625 6.75251 1.16446 6.998 0.905088C7.24349 0.645715 7.57645 0.5 7.92362 0.5H26.25C26.5972 0.5 26.9301 0.645715 27.1756 0.905088C27.4211 1.16446 27.559 1.51625 27.559 1.88306C27.559 2.24987 27.4211 2.60165 27.1756 2.86103C26.9301 3.1204 26.5972 3.26611 26.25 3.26611ZM28.8681 7.41528H5.30557C4.95839 7.41528 4.62544 7.26957 4.37995 7.0102C4.13446 6.75082 3.99654 6.39904 3.99654 6.03223C3.99654 5.66542 4.13446 5.31363 4.37995 5.05426C4.62544 4.79488 4.95839 4.64917 5.30557 4.64917H28.8681C29.2152 4.64917 29.5482 4.79488 29.7937 5.05426C30.0392 5.31363 30.1771 5.66542 30.1771 6.03223C30.1771 6.39904 30.0392 6.75082 29.7937 7.0102C29.5482 7.26957 29.2152 7.41528 28.8681 7.41528ZM30.4332 33.6934H3.74046C2.76718 33.6922 1.83408 33.2832 1.14587 32.5561C0.457654 31.8289 0.0705408 30.8431 0.069458 29.8148V12.6769C0.0705408 11.6486 0.457654 10.6628 1.14587 9.93562C1.83408 9.20849 2.76718 8.79948 3.74046 8.79834H30.4332C31.4064 8.79948 32.3396 9.20849 33.0278 9.93562C33.716 10.6628 34.1031 11.6486 34.1042 12.6769V29.8148C34.1031 30.8431 33.716 31.8289 33.0278 32.5561C32.3396 33.2832 31.4064 33.6922 30.4332 33.6934Z" fill="white"/>
</svg>
