<svg width="41" height="34" viewBox="0 0 41 34" fill="none" xmlns="http://www.w3.org/2000/svg">
<path d="M19.7341 8.95107L6.8034 20.2032V32.3476C6.8034 32.662 6.92163 32.9636 7.13207 33.1859C7.34252 33.4083 7.62794 33.5332 7.92555 33.5332L15.7848 33.5117C16.0814 33.5101 16.3654 33.3845 16.5747 33.1624C16.7839 32.9402 16.9013 32.6395 16.9013 32.3261V25.2339C16.9013 24.9195 17.0196 24.6179 17.23 24.3956C17.4405 24.1732 17.7259 24.0483 18.0235 24.0483H22.5121C22.8097 24.0483 23.0951 24.1732 23.3056 24.3956C23.516 24.6179 23.6342 24.9195 23.6342 25.2339V32.3209C23.6338 32.4769 23.6625 32.6315 23.7186 32.7758C23.7748 32.92 23.8574 33.0512 23.9617 33.1617C24.0659 33.2722 24.1898 33.3598 24.3261 33.4196C24.4625 33.4794 24.6087 33.5102 24.7564 33.5102L32.6128 33.5332C32.9104 33.5332 33.1959 33.4083 33.4063 33.1859C33.6168 32.9636 33.735 32.662 33.735 32.3476V20.1951L20.8071 8.95107C20.6551 8.82164 20.4658 8.75105 20.2706 8.75105C20.0754 8.75105 19.8861 8.82164 19.7341 8.95107V8.95107ZM40.1593 16.599L34.2961 11.4927V1.22905C34.2961 0.993218 34.2074 0.767045 34.0496 0.600287C33.8917 0.433528 33.6777 0.339844 33.4544 0.339844H29.5269C29.3037 0.339844 29.0896 0.433528 28.9318 0.600287C28.774 0.767045 28.6853 0.993218 28.6853 1.22905V6.60949L22.4062 1.15125C21.8036 0.627339 21.0475 0.340891 20.2671 0.340891C19.4867 0.340891 18.7306 0.627339 18.128 1.15125L0.374892 16.599C0.28967 16.6734 0.219162 16.7649 0.167398 16.8681C0.115633 16.9713 0.0836257 17.0843 0.0732047 17.2006C0.0627837 17.3169 0.0741533 17.4342 0.106664 17.5459C0.139174 17.6575 0.192188 17.7613 0.262677 17.8513L2.0511 20.1484C2.1214 20.2387 2.20786 20.3135 2.30555 20.3685C2.40323 20.4234 2.51022 20.4575 2.62038 20.4687C2.73054 20.4799 2.84171 20.4681 2.94753 20.4338C3.05335 20.3996 3.15174 20.3437 3.23707 20.2692L19.7341 5.91295C19.8861 5.78351 20.0754 5.71293 20.2706 5.71293C20.4658 5.71293 20.6551 5.78351 20.8071 5.91295L37.3048 20.2692C37.39 20.3437 37.4882 20.3997 37.5939 20.434C37.6996 20.4684 37.8106 20.4804 37.9207 20.4694C38.0308 20.4584 38.1377 20.4246 38.2354 20.3699C38.3331 20.3152 38.4197 20.2407 38.4901 20.1506L40.2785 17.8535C40.3489 17.763 40.4017 17.6587 40.4339 17.5465C40.466 17.4344 40.4768 17.3166 40.4657 17.2001C40.4547 17.0835 40.4219 16.9704 40.3693 16.8672C40.3167 16.7641 40.2453 16.6729 40.1593 16.599V16.599Z" fill="white"/>
</svg>
