<svg width="38" height="34" viewBox="0 0 38 34" fill="none" xmlns="http://www.w3.org/2000/svg">
<path d="M10.0657 16.9941C10.0657 16.594 10.2161 16.2102 10.4839 15.9273C10.7517 15.6443 11.115 15.4854 11.4937 15.4854H24.346V5.67822C24.346 2.66064 21.3302 0.397461 18.6339 0.397461H5.06756C3.74242 0.398959 2.47195 0.955804 1.53494 1.94581C0.597916 2.93582 0.0708755 4.27814 0.069458 5.67822V28.3101C0.0708755 29.7101 0.597916 31.0525 1.53494 32.0425C2.47195 33.0325 3.74242 33.5893 5.06756 33.5908H19.3479C20.673 33.5893 21.9435 33.0325 22.8805 32.0425C23.8175 31.0525 24.3446 29.7101 24.346 28.3101V18.5029H11.4937C11.115 18.5029 10.7517 18.344 10.4839 18.061C10.2161 17.7781 10.0657 17.3943 10.0657 16.9941ZM36.7797 15.9276L29.6395 8.38367C29.3695 8.11266 29.01 7.96381 28.6376 7.96884C28.2653 7.97388 27.9095 8.13241 27.6461 8.41063C27.3828 8.68886 27.2328 9.06476 27.228 9.45819C27.2232 9.85163 27.3641 10.2315 27.6206 10.5167L32.3224 15.4854H24.346V18.5029H32.3224L27.6206 23.4716C27.4824 23.6103 27.3719 23.7768 27.2956 23.9614C27.2193 24.1459 27.1787 24.3447 27.1763 24.5461C27.1739 24.7475 27.2096 24.9473 27.2814 25.1339C27.3532 25.3204 27.4597 25.4899 27.5944 25.6323C27.7292 25.7747 27.8896 25.8871 28.0662 25.963C28.2427 26.0389 28.4319 26.0766 28.6225 26.0741C28.8131 26.0715 29.0013 26.0286 29.1759 25.948C29.3506 25.8674 29.5082 25.7506 29.6395 25.6046L36.7797 18.0607C37.0473 17.7777 37.1976 17.3941 37.1976 16.9941C37.1976 16.5942 37.0473 16.2105 36.7797 15.9276Z" fill="#FF002E"/>
</svg>
