<svg width="32" height="34" viewBox="0 0 32 34" fill="none" xmlns="http://www.w3.org/2000/svg">
<path d="M15.8722 0.0800781C7.1999 0.0800781 0.163879 7.51401 0.163879 16.6768C0.163879 25.8395 7.1999 33.2734 15.8722 33.2734C24.5445 33.2734 31.5805 25.8395 31.5805 16.6768C31.5805 7.51401 24.5445 0.0800781 15.8722 0.0800781ZM15.3813 26.3582C15.0577 26.3582 14.7413 26.2568 14.4723 26.0668C14.2032 25.8768 13.9934 25.6068 13.8696 25.2909C13.7458 24.975 13.7133 24.6274 13.7765 24.2921C13.8396 23.9567 13.9955 23.6487 14.2243 23.4069C14.4531 23.1651 14.7447 23.0004 15.0621 22.9337C15.3795 22.867 15.7085 22.9013 16.0075 23.0321C16.3065 23.163 16.562 23.3845 16.7418 23.6688C16.9216 23.9532 17.0176 24.2874 17.0176 24.6293C17.0176 25.0878 16.8452 25.5276 16.5384 25.8518C16.2315 26.176 15.8153 26.3582 15.3813 26.3582ZM18.1172 17.5412C16.791 18.4816 16.6085 19.3435 16.6085 20.1344C16.6085 20.4554 16.4879 20.7632 16.2731 20.9901C16.0583 21.2171 15.7669 21.3446 15.4631 21.3446C15.1594 21.3446 14.868 21.2171 14.6532 20.9901C14.4384 20.7632 14.3177 20.4554 14.3177 20.1344C14.3177 18.2405 15.1424 16.7347 16.8393 15.5306C18.4166 14.412 19.3084 13.7032 19.3084 12.1447C19.3084 11.0849 18.7357 10.2801 17.5502 9.68454C17.2712 9.54451 16.6503 9.40793 15.8861 9.41744C14.9273 9.43041 14.1827 9.67244 13.6092 10.16C12.5276 11.0797 12.436 12.0807 12.436 12.0954C12.4288 12.2543 12.392 12.4102 12.3277 12.5541C12.2634 12.6979 12.173 12.8271 12.0615 12.934C11.95 13.041 11.8197 13.1237 11.6779 13.1774C11.5362 13.2312 11.3858 13.2549 11.2354 13.2472C11.085 13.2395 10.9375 13.2007 10.8013 13.1328C10.6651 13.0649 10.5429 12.9693 10.4416 12.8515C10.3404 12.7337 10.2621 12.596 10.2113 12.4462C10.1604 12.2965 10.138 12.1376 10.1452 11.9787C10.1542 11.7686 10.2925 9.87644 12.1718 8.27901C13.1462 7.45091 14.3856 7.02043 15.8534 7.00141C16.8924 6.98845 17.8685 7.17429 18.5304 7.5045C20.5111 8.49425 21.5992 10.1444 21.5992 12.1447C21.5992 15.069 19.7494 16.382 18.1172 17.5412Z" fill="white"/>
</svg>
