<svg width="256" height="252" viewBox="0 0 256 252" fill="none" xmlns="http://www.w3.org/2000/svg">
<rect width="256" height="252" rx="10" fill="#292525"/>
<path d="M103.138 229V215.909H111.805V218.191H105.906V221.31H111.23V223.592H105.906V229H103.138ZM114.178 229V219.182H116.818V220.895H116.92C117.099 220.286 117.399 219.825 117.821 219.514C118.243 219.199 118.729 219.041 119.279 219.041C119.415 219.041 119.562 219.05 119.72 219.067C119.877 219.084 120.016 219.107 120.135 219.137V221.553C120.007 221.515 119.83 221.481 119.605 221.451C119.379 221.421 119.172 221.406 118.985 221.406C118.584 221.406 118.226 221.494 117.911 221.668C117.6 221.839 117.352 222.077 117.169 222.384C116.99 222.691 116.901 223.045 116.901 223.445V229H114.178ZM126.28 229.192C125.27 229.192 124.401 228.987 123.672 228.578C122.948 228.165 122.39 227.581 121.998 226.827C121.606 226.068 121.41 225.171 121.41 224.136C121.41 223.126 121.606 222.239 121.998 221.477C122.39 220.714 122.942 220.119 123.653 219.693C124.369 219.267 125.209 219.054 126.172 219.054C126.819 219.054 127.422 219.158 127.981 219.367C128.543 219.572 129.033 219.881 129.451 220.294C129.873 220.707 130.201 221.227 130.435 221.854C130.67 222.476 130.787 223.205 130.787 224.04V224.788H122.496V223.1H128.224C128.224 222.708 128.138 222.361 127.968 222.058C127.797 221.756 127.561 221.519 127.258 221.349C126.96 221.174 126.613 221.087 126.216 221.087C125.803 221.087 125.437 221.183 125.117 221.374C124.802 221.562 124.555 221.815 124.376 222.135C124.197 222.45 124.105 222.802 124.101 223.19V224.794C124.101 225.28 124.19 225.7 124.369 226.053C124.552 226.407 124.81 226.68 125.143 226.871C125.475 227.063 125.869 227.159 126.325 227.159C126.628 227.159 126.905 227.116 127.156 227.031C127.408 226.946 127.623 226.818 127.802 226.648C127.981 226.477 128.117 226.268 128.211 226.021L130.729 226.188C130.601 226.793 130.339 227.321 129.943 227.773C129.551 228.22 129.044 228.57 128.422 228.821C127.804 229.068 127.09 229.192 126.28 229.192ZM137.758 229.192C136.748 229.192 135.879 228.987 135.15 228.578C134.426 228.165 133.868 227.581 133.476 226.827C133.083 226.068 132.887 225.171 132.887 224.136C132.887 223.126 133.083 222.239 133.476 221.477C133.868 220.714 134.419 220.119 135.131 219.693C135.847 219.267 136.686 219.054 137.65 219.054C138.297 219.054 138.9 219.158 139.458 219.367C140.021 219.572 140.511 219.881 140.929 220.294C141.351 220.707 141.679 221.227 141.913 221.854C142.147 222.476 142.265 223.205 142.265 224.04V224.788H133.974V223.1H139.701C139.701 222.708 139.616 222.361 139.446 222.058C139.275 221.756 139.039 221.519 138.736 221.349C138.438 221.174 138.091 221.087 137.694 221.087C137.281 221.087 136.914 221.183 136.595 221.374C136.279 221.562 136.032 221.815 135.853 222.135C135.674 222.45 135.583 222.802 135.579 223.19V224.794C135.579 225.28 135.668 225.7 135.847 226.053C136.03 226.407 136.288 226.68 136.62 226.871C136.953 227.063 137.347 227.159 137.803 227.159C138.105 227.159 138.382 227.116 138.634 227.031C138.885 226.946 139.101 226.818 139.279 226.648C139.458 226.477 139.595 226.268 139.689 226.021L142.207 226.188C142.079 226.793 141.817 227.321 141.421 227.773C141.029 228.22 140.522 228.57 139.9 228.821C139.282 229.068 138.568 229.192 137.758 229.192Z" fill="white"/>
<path d="M47.7922 180.545H52.3433L57.1502 192.273H57.3547L62.1615 180.545H66.7127V198H63.1331V186.639H62.9882L58.4712 197.915H56.0337L51.5166 186.597H51.3717V198H47.7922V180.545ZM79.0398 192.426V184.909H82.6705V198H79.1847V195.622H79.0484C78.7529 196.389 78.2614 197.006 77.5739 197.472C76.8921 197.937 76.0597 198.17 75.0768 198.17C74.2018 198.17 73.4319 197.972 72.7671 197.574C72.1023 197.176 71.5825 196.611 71.2075 195.878C70.8381 195.145 70.6506 194.267 70.645 193.244V184.909H74.2756V192.597C74.2813 193.369 74.4887 193.98 74.8978 194.429C75.3069 194.878 75.8552 195.102 76.5427 195.102C76.9802 195.102 77.3893 195.003 77.77 194.804C78.1506 194.599 78.4575 194.298 78.6904 193.901C78.929 193.503 79.0455 193.011 79.0398 192.426ZM97.4267 188.642L94.1028 188.847C94.046 188.562 93.9238 188.307 93.7363 188.08C93.5488 187.847 93.3017 187.662 92.9949 187.526C92.6937 187.384 92.3329 187.312 91.9125 187.312C91.35 187.312 90.8756 187.432 90.4892 187.67C90.1028 187.903 89.9096 188.216 89.9096 188.608C89.9096 188.92 90.0346 189.185 90.2846 189.401C90.5346 189.616 90.9636 189.79 91.5716 189.92L93.9409 190.398C95.2136 190.659 96.1625 191.08 96.7875 191.659C97.4125 192.239 97.725 193 97.725 193.943C97.725 194.801 97.4721 195.554 96.9665 196.202C96.4665 196.849 95.779 197.355 94.904 197.719C94.0346 198.077 93.0318 198.256 91.8954 198.256C90.1625 198.256 88.7818 197.895 87.7534 197.173C86.7307 196.446 86.1312 195.457 85.9551 194.207L89.5261 194.02C89.6341 194.548 89.8954 194.952 90.3102 195.23C90.725 195.503 91.2562 195.639 91.904 195.639C92.5403 195.639 93.0517 195.517 93.4381 195.273C93.8301 195.023 94.029 194.702 94.0346 194.31C94.029 193.98 93.8898 193.71 93.617 193.5C93.3443 193.284 92.9238 193.119 92.3557 193.006L90.0886 192.554C88.8102 192.298 87.8585 191.855 87.2335 191.224C86.6142 190.594 86.3045 189.79 86.3045 188.812C86.3045 187.972 86.5318 187.247 86.9863 186.639C87.4466 186.031 88.0915 185.562 88.921 185.233C89.7562 184.903 90.7335 184.739 91.8528 184.739C93.5062 184.739 94.8074 185.088 95.7562 185.787C96.7108 186.486 97.2676 187.437 97.4267 188.642ZM100.971 198V184.909H104.602V198H100.971ZM102.795 183.222C102.255 183.222 101.792 183.043 101.406 182.685C101.025 182.321 100.835 181.886 100.835 181.381C100.835 180.881 101.025 180.452 101.406 180.094C101.792 179.73 102.255 179.548 102.795 179.548C103.335 179.548 103.795 179.73 104.176 180.094C104.562 180.452 104.755 180.881 104.755 181.381C104.755 181.886 104.562 182.321 104.176 182.685C103.795 183.043 103.335 183.222 102.795 183.222ZM114.385 198.256C113.044 198.256 111.891 197.972 110.925 197.403C109.965 196.83 109.226 196.034 108.709 195.017C108.198 194 107.942 192.83 107.942 191.506C107.942 190.165 108.2 188.989 108.717 187.977C109.24 186.96 109.982 186.168 110.942 185.599C111.902 185.026 113.044 184.739 114.368 184.739C115.51 184.739 116.51 184.946 117.368 185.361C118.226 185.776 118.905 186.358 119.405 187.108C119.905 187.858 120.18 188.739 120.232 189.75H116.805C116.709 189.097 116.453 188.571 116.038 188.173C115.629 187.77 115.092 187.568 114.428 187.568C113.865 187.568 113.374 187.722 112.953 188.028C112.538 188.33 112.215 188.77 111.982 189.349C111.749 189.929 111.632 190.631 111.632 191.455C111.632 192.29 111.746 193 111.973 193.585C112.206 194.17 112.533 194.616 112.953 194.923C113.374 195.23 113.865 195.384 114.428 195.384C114.842 195.384 115.215 195.298 115.544 195.128C115.879 194.957 116.155 194.71 116.371 194.386C116.592 194.057 116.737 193.662 116.805 193.202H120.232C120.175 194.202 119.902 195.082 119.413 195.844C118.93 196.599 118.263 197.19 117.411 197.616C116.558 198.043 115.55 198.256 114.385 198.256ZM130.832 189.273C130.832 187.159 131.113 185.213 131.676 183.435C132.244 181.656 133.11 180.009 134.275 178.491H137.744C137.301 179.054 136.889 179.741 136.508 180.554C136.127 181.361 135.795 182.247 135.511 183.213C135.227 184.179 135.005 185.179 134.846 186.213C134.687 187.241 134.608 188.261 134.608 189.273C134.608 190.619 134.744 191.98 135.017 193.355C135.295 194.724 135.67 195.997 136.142 197.173C136.619 198.349 137.153 199.312 137.744 200.062H134.275C133.11 198.545 132.244 196.898 131.676 195.119C131.113 193.341 130.832 191.392 130.832 189.273ZM144.033 180.545L148.252 193.807H148.413L152.641 180.545H156.732L150.715 198H145.959L139.933 180.545H144.033ZM164.163 198.256C162.839 198.256 161.694 197.974 160.728 197.412C159.768 196.844 159.026 196.054 158.503 195.043C157.981 194.026 157.719 192.847 157.719 191.506C157.719 190.153 157.981 188.972 158.503 187.96C159.026 186.943 159.768 186.153 160.728 185.591C161.694 185.023 162.839 184.739 164.163 184.739C165.486 184.739 166.628 185.023 167.589 185.591C168.555 186.153 169.299 186.943 169.822 187.96C170.344 188.972 170.606 190.153 170.606 191.506C170.606 192.847 170.344 194.026 169.822 195.043C169.299 196.054 168.555 196.844 167.589 197.412C166.628 197.974 165.486 198.256 164.163 198.256ZM164.18 195.443C164.782 195.443 165.285 195.273 165.688 194.932C166.092 194.585 166.395 194.114 166.6 193.517C166.81 192.92 166.915 192.241 166.915 191.48C166.915 190.719 166.81 190.04 166.6 189.443C166.395 188.847 166.092 188.375 165.688 188.028C165.285 187.682 164.782 187.509 164.18 187.509C163.572 187.509 163.06 187.682 162.645 188.028C162.236 188.375 161.927 188.847 161.717 189.443C161.512 190.04 161.41 190.719 161.41 191.48C161.41 192.241 161.512 192.92 161.717 193.517C161.927 194.114 162.236 194.585 162.645 194.932C163.06 195.273 163.572 195.443 164.18 195.443ZM179.841 198.256C178.5 198.256 177.347 197.972 176.381 197.403C175.421 196.83 174.682 196.034 174.165 195.017C173.654 194 173.398 192.83 173.398 191.506C173.398 190.165 173.657 188.989 174.174 187.977C174.696 186.96 175.438 186.168 176.398 185.599C177.358 185.026 178.5 184.739 179.824 184.739C180.966 184.739 181.966 184.946 182.824 185.361C183.682 185.776 184.361 186.358 184.861 187.108C185.361 187.858 185.637 188.739 185.688 189.75H182.262C182.165 189.097 181.909 188.571 181.495 188.173C181.086 187.77 180.549 187.568 179.884 187.568C179.321 187.568 178.83 187.722 178.409 188.028C177.995 188.33 177.671 188.77 177.438 189.349C177.205 189.929 177.088 190.631 177.088 191.455C177.088 192.29 177.202 193 177.429 193.585C177.662 194.17 177.989 194.616 178.409 194.923C178.83 195.23 179.321 195.384 179.884 195.384C180.299 195.384 180.671 195.298 181 195.128C181.336 194.957 181.611 194.71 181.827 194.386C182.049 194.057 182.194 193.662 182.262 193.202H185.688C185.631 194.202 185.358 195.082 184.87 195.844C184.387 196.599 183.719 197.19 182.867 197.616C182.015 198.043 181.006 198.256 179.841 198.256ZM192.705 198.247C191.87 198.247 191.126 198.102 190.472 197.812C189.819 197.517 189.302 197.082 188.921 196.509C188.546 195.929 188.359 195.207 188.359 194.344C188.359 193.616 188.492 193.006 188.759 192.511C189.026 192.017 189.39 191.619 189.85 191.318C190.311 191.017 190.833 190.79 191.418 190.636C192.009 190.483 192.629 190.375 193.276 190.312C194.038 190.233 194.651 190.159 195.117 190.091C195.583 190.017 195.921 189.909 196.132 189.767C196.342 189.625 196.447 189.415 196.447 189.136V189.085C196.447 188.545 196.276 188.128 195.936 187.832C195.6 187.537 195.123 187.389 194.504 187.389C193.85 187.389 193.33 187.534 192.944 187.824C192.558 188.108 192.302 188.466 192.177 188.898L188.819 188.625C188.989 187.83 189.325 187.142 189.825 186.562C190.325 185.977 190.97 185.528 191.759 185.216C192.555 184.898 193.475 184.739 194.521 184.739C195.248 184.739 195.944 184.824 196.609 184.994C197.279 185.165 197.873 185.429 198.39 185.787C198.913 186.145 199.325 186.605 199.626 187.168C199.927 187.724 200.078 188.392 200.078 189.17V198H196.634V196.185H196.532C196.322 196.594 196.041 196.955 195.688 197.267C195.336 197.574 194.913 197.815 194.418 197.991C193.924 198.162 193.353 198.247 192.705 198.247ZM193.745 195.741C194.279 195.741 194.751 195.636 195.16 195.426C195.569 195.21 195.89 194.92 196.123 194.557C196.356 194.193 196.472 193.781 196.472 193.321V191.932C196.359 192.006 196.203 192.074 196.004 192.136C195.811 192.193 195.592 192.247 195.347 192.298C195.103 192.344 194.859 192.386 194.614 192.426C194.37 192.46 194.149 192.491 193.95 192.52C193.524 192.582 193.151 192.682 192.833 192.818C192.515 192.955 192.268 193.139 192.092 193.372C191.916 193.599 191.828 193.884 191.828 194.224C191.828 194.719 192.007 195.097 192.364 195.358C192.728 195.614 193.188 195.741 193.745 195.741ZM207.485 180.545V198H203.854V180.545H207.485ZM217.473 191.003C217.473 193.122 217.189 195.071 216.62 196.849C216.058 198.628 215.194 200.276 214.03 201.793H210.561C211.004 201.23 211.416 200.543 211.797 199.73C212.177 198.918 212.51 198.031 212.794 197.071C213.078 196.105 213.299 195.105 213.459 194.071C213.618 193.037 213.697 192.014 213.697 191.003C213.697 189.656 213.558 188.298 213.28 186.929C213.007 185.554 212.632 184.281 212.155 183.111C211.683 181.935 211.152 180.972 210.561 180.222H214.03C215.194 181.739 216.058 183.386 216.62 185.165C217.189 186.943 217.473 188.889 217.473 191.003Z" fill="white"/>
<rect x="25" y="21" width="205" height="120" rx="10" fill="white"/>
</svg>
