<svg width="33" height="34" viewBox="0 0 33 34" fill="none" xmlns="http://www.w3.org/2000/svg">
<path d="M31.7879 30.0578L24.6659 22.5331C26.3806 20.1213 27.3062 17.1857 27.3031 14.1694C27.3031 6.46466 21.3702 0.196289 14.0779 0.196289C6.78563 0.196289 0.852783 6.46466 0.852783 14.1694C0.852783 21.8741 6.78563 28.1424 14.0779 28.1424C16.9329 28.1457 19.7113 27.1678 21.994 25.3561L29.116 32.8809C29.4765 33.2214 29.9467 33.4032 30.43 33.3889C30.9134 33.3746 31.3733 33.1653 31.7152 32.804C32.0571 32.4428 32.2552 31.9569 32.2687 31.4462C32.2822 30.9355 32.1102 30.4387 31.7879 30.0578V30.0578ZM4.6314 14.1694C4.6314 12.1954 5.18543 10.2657 6.22343 8.62435C7.26143 6.98302 8.73677 5.70376 10.4629 4.94834C12.189 4.19292 14.0884 3.99526 15.9209 4.38037C17.7533 4.76548 19.4365 5.71606 20.7576 7.1119C22.0788 8.50773 22.9785 10.2861 23.343 12.2222C23.7075 14.1583 23.5204 16.1651 22.8054 17.9888C22.0904 19.8126 20.8796 21.3714 19.3262 22.4681C17.7727 23.5648 15.9463 24.1501 14.0779 24.1501C11.5735 24.147 9.17246 23.0944 7.40155 21.2233C5.63063 19.3523 4.6344 16.8155 4.6314 14.1694V14.1694Z" fill="white"/>
</svg>
